M48
;DRILL file {KiCad 4.0.1-3.201512221402+6198~38~ubuntu14.04.1-stable} date Thu 28 Jan 2016 03:01:03 PM CST
;FORMAT={-:-/ absolute / inch / decimal}
FMAT,2
INCH,TZ
T1C0.031
T2C0.039
T3C0.039
T4C0.055
%
G90
G05
M72
T1
X5.285Y-3.455
X5.285Y-3.555
X5.285Y-3.655
X5.285Y-3.755
X5.585Y-3.455
X5.585Y-3.555
X5.585Y-3.655
X5.585Y-3.755
T2
X6.59Y-3.5438
X6.59Y-3.78
X6.7475Y-3.5438
X6.7475Y-3.78
T3
X5.12Y-4.48
X5.22Y-4.48
X5.32Y-4.48
X5.62Y-4.48
X5.72Y-4.48
X5.82Y-4.48
X6.125Y-4.48
X6.225Y-4.48
X6.325Y-4.48
T4
X4.2756Y-3.7366
X4.2756Y-3.8744
X4.2756Y-4.0122
X4.2756Y-4.15
X4.2756Y-4.2878
X4.2756Y-4.4256
X6.6744Y-3.9622
X6.6744Y-4.1
X6.6744Y-4.2378
T0
M30
