G04 #@! TF.FileFunction,Legend,Top*
%FSLAX46Y46*%
G04 Gerber Fmt 4.6, Leading zero omitted, Abs format (unit mm)*
G04 Created by KiCad (PCBNEW 4.0.1-3.201512221402+6198~38~ubuntu14.04.1-stable) date Thu 28 Jan 2016 03:12:28 PM CST*
%MOMM*%
G01*
G04 APERTURE LIST*
%ADD10C,0.100000*%
%ADD11C,0.150000*%
G04 APERTURE END LIST*
D10*
D11*
X145892000Y-95850000D02*
X145192000Y-95850000D01*
X145192000Y-94650000D02*
X145892000Y-94650000D01*
X170096000Y-87418000D02*
X171996000Y-87418000D01*
X170096000Y-86318000D02*
X171996000Y-86318000D01*
X170996000Y-86868000D02*
X171446000Y-86868000D01*
X170946000Y-86618000D02*
X170946000Y-87118000D01*
X170946000Y-86868000D02*
X171196000Y-86618000D01*
X171196000Y-86618000D02*
X171196000Y-87118000D01*
X171196000Y-87118000D02*
X170946000Y-86868000D01*
X159639000Y-116840000D02*
X159639000Y-115697000D01*
X156591000Y-116840000D02*
X156591000Y-115697000D01*
X152781000Y-115697000D02*
X152781000Y-112014000D01*
X152781000Y-112014000D02*
X163449000Y-112014000D01*
X163449000Y-112014000D02*
X163449000Y-115697000D01*
X152781000Y-116840000D02*
X152781000Y-115697000D01*
X152781000Y-115697000D02*
X163449000Y-115697000D01*
X163449000Y-115697000D02*
X163449000Y-116840000D01*
X158115000Y-116840000D02*
X163449000Y-116840000D01*
X158115000Y-116840000D02*
X152781000Y-116840000D01*
X146812000Y-116840000D02*
X146812000Y-115697000D01*
X143764000Y-116840000D02*
X143764000Y-115697000D01*
X139954000Y-115697000D02*
X139954000Y-112014000D01*
X139954000Y-112014000D02*
X150622000Y-112014000D01*
X150622000Y-112014000D02*
X150622000Y-115697000D01*
X139954000Y-116840000D02*
X139954000Y-115697000D01*
X139954000Y-115697000D02*
X150622000Y-115697000D01*
X150622000Y-115697000D02*
X150622000Y-116840000D01*
X145288000Y-116840000D02*
X150622000Y-116840000D01*
X145288000Y-116840000D02*
X139954000Y-116840000D01*
X134112000Y-116840000D02*
X134112000Y-115697000D01*
X131064000Y-116840000D02*
X131064000Y-115697000D01*
X127254000Y-115697000D02*
X127254000Y-112014000D01*
X127254000Y-112014000D02*
X137922000Y-112014000D01*
X137922000Y-112014000D02*
X137922000Y-115697000D01*
X127254000Y-116840000D02*
X127254000Y-115697000D01*
X127254000Y-115697000D02*
X137922000Y-115697000D01*
X137922000Y-115697000D02*
X137922000Y-116840000D01*
X132588000Y-116840000D02*
X137922000Y-116840000D01*
X132588000Y-116840000D02*
X127254000Y-116840000D01*
X163616000Y-109736000D02*
X163616000Y-110736000D01*
X162266000Y-110736000D02*
X162266000Y-109736000D01*
X161330000Y-109736000D02*
X161330000Y-110736000D01*
X159980000Y-110736000D02*
X159980000Y-109736000D01*
X150535000Y-109482000D02*
X150535000Y-110482000D01*
X149185000Y-110482000D02*
X149185000Y-109482000D01*
X148503000Y-109482000D02*
X148503000Y-110482000D01*
X147153000Y-110482000D02*
X147153000Y-109482000D01*
X137835000Y-109863000D02*
X137835000Y-110863000D01*
X136485000Y-110863000D02*
X136485000Y-109863000D01*
X135803000Y-109863000D02*
X135803000Y-110863000D01*
X134453000Y-110863000D02*
X134453000Y-109863000D01*
X166886000Y-86193000D02*
X167886000Y-86193000D01*
X167886000Y-87543000D02*
X166886000Y-87543000D01*
X163155000Y-88892000D02*
X163155000Y-87892000D01*
X164505000Y-87892000D02*
X164505000Y-88892000D01*
X114562000Y-93305000D02*
X115562000Y-93305000D01*
X115562000Y-94655000D02*
X114562000Y-94655000D01*
X114562000Y-95718000D02*
X115562000Y-95718000D01*
X115562000Y-97068000D02*
X114562000Y-97068000D01*
X166386000Y-96962000D02*
X166486000Y-96962000D01*
X166336000Y-97062000D02*
X166336000Y-96712000D01*
X166336000Y-96712000D02*
G75*
G03X166686000Y-97062000I1050000J700000D01*
G01*
X166336000Y-97062000D02*
X166686000Y-97062000D01*
X170800214Y-93012000D02*
G75*
G03X170800214Y-93012000I-1414214J0D01*
G01*
X172386000Y-95012000D02*
X172386000Y-91012000D01*
X166386000Y-95012000D02*
X166386000Y-91012000D01*
X170136000Y-96012000D02*
X168636000Y-96012000D01*
X168636000Y-90012000D02*
X170136000Y-90012000D01*
D10*
X169386000Y-96012000D02*
X169386000Y-96012000D01*
X172386000Y-91012000D02*
X172386000Y-95012000D01*
X166386000Y-91012000D02*
X166386000Y-95012000D01*
X169386000Y-90012000D02*
X169386000Y-90012000D01*
X170800214Y-93012000D02*
G75*
G03X170800214Y-93012000I-1414214J0D01*
G01*
D11*
X141724000Y-97672000D02*
X141724000Y-96402000D01*
X134374000Y-97672000D02*
X134374000Y-96402000D01*
X134374000Y-85462000D02*
X134374000Y-86732000D01*
X141724000Y-85462000D02*
X141724000Y-86732000D01*
X141724000Y-97672000D02*
X134374000Y-97672000D01*
X141724000Y-85462000D02*
X134374000Y-85462000D01*
X141724000Y-96402000D02*
X143009000Y-96402000D01*
X171450000Y-98552000D02*
X171450000Y-102362000D01*
X171450000Y-102362000D02*
X167640000Y-102362000D01*
X167640000Y-102362000D02*
X167640000Y-98552000D01*
X173990000Y-109728000D02*
X164846000Y-109728000D01*
X173990000Y-98552000D02*
X164846000Y-98552000D01*
X173990000Y-98552000D02*
X173990000Y-109728000D01*
X164846000Y-98552000D02*
X164846000Y-109728000D01*
X106680000Y-114554000D02*
X106680000Y-110744000D01*
X106680000Y-110744000D02*
X110490000Y-110744000D01*
X110490000Y-110744000D02*
X110490000Y-114554000D01*
X107188000Y-92710000D02*
X104140000Y-92710000D01*
X104140000Y-92710000D02*
X104140000Y-114554000D01*
X104140000Y-114554000D02*
X113284000Y-114554000D01*
X113284000Y-114554000D02*
X113284000Y-92710000D01*
X113284000Y-92710000D02*
X107188000Y-92710000D01*
M02*
