G04 #@! TF.FileFunction,Copper,L1,Top,Signal*
%FSLAX46Y46*%
G04 Gerber Fmt 4.6, Leading zero omitted, Abs format (unit mm)*
G04 Created by KiCad (PCBNEW 4.0.1-3.201512221402+6198~38~ubuntu14.04.1-stable) date Thu 28 Jan 2016 03:00:53 PM CST*
%MOMM*%
G01*
G04 APERTURE LIST*
%ADD10C,0.100000*%
%ADD11C,0.300000*%
%ADD12C,0.002540*%
%ADD13R,0.800000X0.750000*%
%ADD14R,0.797560X0.797560*%
%ADD15O,1.501140X2.499360*%
%ADD16R,0.900000X0.500000*%
%ADD17R,0.500000X0.900000*%
%ADD18C,1.700000*%
%ADD19O,2.300000X1.600000*%
%ADD20C,2.794000*%
%ADD21C,0.508000*%
%ADD22C,1.270000*%
%ADD23C,0.250000*%
%ADD24C,0.254000*%
G04 APERTURE END LIST*
D10*
D11*
X104946714Y-87292571D02*
X104946714Y-85792571D01*
X104946714Y-86364000D02*
X105089571Y-86292571D01*
X105375285Y-86292571D01*
X105518142Y-86364000D01*
X105589571Y-86435429D01*
X105661000Y-86578286D01*
X105661000Y-87006857D01*
X105589571Y-87149714D01*
X105518142Y-87221143D01*
X105375285Y-87292571D01*
X105089571Y-87292571D01*
X104946714Y-87221143D01*
X106303857Y-87292571D02*
X106303857Y-86292571D01*
X106303857Y-85792571D02*
X106232428Y-85864000D01*
X106303857Y-85935429D01*
X106375285Y-85864000D01*
X106303857Y-85792571D01*
X106303857Y-85935429D01*
X106803857Y-86292571D02*
X107375286Y-86292571D01*
X107018143Y-85792571D02*
X107018143Y-87078286D01*
X107089571Y-87221143D01*
X107232429Y-87292571D01*
X107375286Y-87292571D01*
X107875286Y-87149714D02*
X107946714Y-87221143D01*
X107875286Y-87292571D01*
X107803857Y-87221143D01*
X107875286Y-87149714D01*
X107875286Y-87292571D01*
X108803858Y-87292571D02*
X108661000Y-87221143D01*
X108589572Y-87078286D01*
X108589572Y-85792571D01*
X109232429Y-86292571D02*
X109589572Y-87292571D01*
X109946714Y-86292571D02*
X109589572Y-87292571D01*
X109446714Y-87649714D01*
X109375286Y-87721143D01*
X109232429Y-87792571D01*
X111589571Y-85721143D02*
X110303857Y-87649714D01*
X112875286Y-87292571D02*
X112018143Y-87292571D01*
X112446715Y-87292571D02*
X112446715Y-85792571D01*
X112303858Y-86006857D01*
X112161000Y-86149714D01*
X112018143Y-86221143D01*
X113375286Y-85792571D02*
X113732429Y-87292571D01*
X114018143Y-86221143D01*
X114303857Y-87292571D01*
X114661000Y-85792571D01*
X116232429Y-87435429D02*
X116089572Y-87364000D01*
X115946715Y-87221143D01*
X115732429Y-87006857D01*
X115589572Y-86935429D01*
X115446715Y-86935429D01*
X115518143Y-87292571D02*
X115375286Y-87221143D01*
X115232429Y-87078286D01*
X115161000Y-86792571D01*
X115161000Y-86292571D01*
X115232429Y-86006857D01*
X115375286Y-85864000D01*
X115518143Y-85792571D01*
X115803857Y-85792571D01*
X115946715Y-85864000D01*
X116089572Y-86006857D01*
X116161000Y-86292571D01*
X116161000Y-86792571D01*
X116089572Y-87078286D01*
X115946715Y-87221143D01*
X115803857Y-87292571D01*
X115518143Y-87292571D01*
X116875286Y-87292571D02*
X117161001Y-87292571D01*
X117303858Y-87221143D01*
X117375286Y-87149714D01*
X117518144Y-86935429D01*
X117589572Y-86649714D01*
X117589572Y-86078286D01*
X117518144Y-85935429D01*
X117446715Y-85864000D01*
X117303858Y-85792571D01*
X117018144Y-85792571D01*
X116875286Y-85864000D01*
X116803858Y-85935429D01*
X116732429Y-86078286D01*
X116732429Y-86435429D01*
X116803858Y-86578286D01*
X116875286Y-86649714D01*
X117018144Y-86721143D01*
X117303858Y-86721143D01*
X117446715Y-86649714D01*
X117518144Y-86578286D01*
X117589572Y-86435429D01*
X118875286Y-86292571D02*
X118875286Y-87292571D01*
X118518143Y-85721143D02*
X118161000Y-86792571D01*
X119089572Y-86792571D01*
X119661000Y-85792571D02*
X119661000Y-87006857D01*
X119732428Y-87149714D01*
X119803857Y-87221143D01*
X119946714Y-87292571D01*
X120232428Y-87292571D01*
X120375286Y-87221143D01*
X120446714Y-87149714D01*
X120518143Y-87006857D01*
X120518143Y-85792571D01*
X121875286Y-87292571D02*
X121875286Y-86506857D01*
X121803857Y-86364000D01*
X121661000Y-86292571D01*
X121375286Y-86292571D01*
X121232429Y-86364000D01*
X121875286Y-87221143D02*
X121732429Y-87292571D01*
X121375286Y-87292571D01*
X121232429Y-87221143D01*
X121161000Y-87078286D01*
X121161000Y-86935429D01*
X121232429Y-86792571D01*
X121375286Y-86721143D01*
X121732429Y-86721143D01*
X121875286Y-86649714D01*
X119364715Y-98341571D02*
X119364715Y-96841571D01*
X119721858Y-96841571D01*
X119936143Y-96913000D01*
X120079001Y-97055857D01*
X120150429Y-97198714D01*
X120221858Y-97484429D01*
X120221858Y-97698714D01*
X120150429Y-97984429D01*
X120079001Y-98127286D01*
X119936143Y-98270143D01*
X119721858Y-98341571D01*
X119364715Y-98341571D01*
X121507572Y-98341571D02*
X121507572Y-97555857D01*
X121436143Y-97413000D01*
X121293286Y-97341571D01*
X121007572Y-97341571D01*
X120864715Y-97413000D01*
X121507572Y-98270143D02*
X121364715Y-98341571D01*
X121007572Y-98341571D01*
X120864715Y-98270143D01*
X120793286Y-98127286D01*
X120793286Y-97984429D01*
X120864715Y-97841571D01*
X121007572Y-97770143D01*
X121364715Y-97770143D01*
X121507572Y-97698714D01*
X122221858Y-97341571D02*
X122221858Y-98341571D01*
X122221858Y-97484429D02*
X122293286Y-97413000D01*
X122436144Y-97341571D01*
X122650429Y-97341571D01*
X122793286Y-97413000D01*
X122864715Y-97555857D01*
X122864715Y-98341571D01*
X123579001Y-98341571D02*
X123579001Y-97341571D01*
X123579001Y-96841571D02*
X123507572Y-96913000D01*
X123579001Y-96984429D01*
X123650429Y-96913000D01*
X123579001Y-96841571D01*
X123579001Y-96984429D01*
X124864715Y-98270143D02*
X124721858Y-98341571D01*
X124436144Y-98341571D01*
X124293287Y-98270143D01*
X124221858Y-98127286D01*
X124221858Y-97555857D01*
X124293287Y-97413000D01*
X124436144Y-97341571D01*
X124721858Y-97341571D01*
X124864715Y-97413000D01*
X124936144Y-97555857D01*
X124936144Y-97698714D01*
X124221858Y-97841571D01*
X125793287Y-98341571D02*
X125650429Y-98270143D01*
X125579001Y-98127286D01*
X125579001Y-96841571D01*
X127436143Y-97913000D02*
X128150429Y-97913000D01*
X127293286Y-98341571D02*
X127793286Y-96841571D01*
X128293286Y-98341571D01*
X128793286Y-98198714D02*
X128864714Y-98270143D01*
X128793286Y-98341571D01*
X128721857Y-98270143D01*
X128793286Y-98198714D01*
X128793286Y-98341571D01*
X119348572Y-94698429D02*
X119420001Y-94627000D01*
X119562858Y-94555571D01*
X119920001Y-94555571D01*
X120062858Y-94627000D01*
X120134287Y-94698429D01*
X120205715Y-94841286D01*
X120205715Y-94984143D01*
X120134287Y-95198429D01*
X119277144Y-96055571D01*
X120205715Y-96055571D01*
X121134286Y-94555571D02*
X121277143Y-94555571D01*
X121420000Y-94627000D01*
X121491429Y-94698429D01*
X121562858Y-94841286D01*
X121634286Y-95127000D01*
X121634286Y-95484143D01*
X121562858Y-95769857D01*
X121491429Y-95912714D01*
X121420000Y-95984143D01*
X121277143Y-96055571D01*
X121134286Y-96055571D01*
X120991429Y-95984143D01*
X120920000Y-95912714D01*
X120848572Y-95769857D01*
X120777143Y-95484143D01*
X120777143Y-95127000D01*
X120848572Y-94841286D01*
X120920000Y-94698429D01*
X120991429Y-94627000D01*
X121134286Y-94555571D01*
X123062857Y-96055571D02*
X122205714Y-96055571D01*
X122634286Y-96055571D02*
X122634286Y-94555571D01*
X122491429Y-94769857D01*
X122348571Y-94912714D01*
X122205714Y-94984143D01*
X124348571Y-94555571D02*
X124062857Y-94555571D01*
X123920000Y-94627000D01*
X123848571Y-94698429D01*
X123705714Y-94912714D01*
X123634285Y-95198429D01*
X123634285Y-95769857D01*
X123705714Y-95912714D01*
X123777142Y-95984143D01*
X123920000Y-96055571D01*
X124205714Y-96055571D01*
X124348571Y-95984143D01*
X124420000Y-95912714D01*
X124491428Y-95769857D01*
X124491428Y-95412714D01*
X124420000Y-95269857D01*
X124348571Y-95198429D01*
X124205714Y-95127000D01*
X123920000Y-95127000D01*
X123777142Y-95198429D01*
X123705714Y-95269857D01*
X123634285Y-95412714D01*
X119936144Y-92983857D02*
X119436144Y-92983857D01*
X119436144Y-93769571D02*
X119436144Y-92269571D01*
X120150430Y-92269571D01*
X121579001Y-93769571D02*
X121079001Y-93055286D01*
X120721858Y-93769571D02*
X120721858Y-92269571D01*
X121293286Y-92269571D01*
X121436144Y-92341000D01*
X121507572Y-92412429D01*
X121579001Y-92555286D01*
X121579001Y-92769571D01*
X121507572Y-92912429D01*
X121436144Y-92983857D01*
X121293286Y-93055286D01*
X120721858Y-93055286D01*
X123079001Y-93626714D02*
X123007572Y-93698143D01*
X122793286Y-93769571D01*
X122650429Y-93769571D01*
X122436144Y-93698143D01*
X122293286Y-93555286D01*
X122221858Y-93412429D01*
X122150429Y-93126714D01*
X122150429Y-92912429D01*
X122221858Y-92626714D01*
X122293286Y-92483857D01*
X122436144Y-92341000D01*
X122650429Y-92269571D01*
X122793286Y-92269571D01*
X123007572Y-92341000D01*
X123079001Y-92412429D01*
X123650429Y-92412429D02*
X123721858Y-92341000D01*
X123864715Y-92269571D01*
X124221858Y-92269571D01*
X124364715Y-92341000D01*
X124436144Y-92412429D01*
X124507572Y-92555286D01*
X124507572Y-92698143D01*
X124436144Y-92912429D01*
X123579001Y-93769571D01*
X124507572Y-93769571D01*
X125007572Y-92269571D02*
X125936143Y-92269571D01*
X125436143Y-92841000D01*
X125650429Y-92841000D01*
X125793286Y-92912429D01*
X125864715Y-92983857D01*
X125936143Y-93126714D01*
X125936143Y-93483857D01*
X125864715Y-93626714D01*
X125793286Y-93698143D01*
X125650429Y-93769571D01*
X125221857Y-93769571D01*
X125079000Y-93698143D01*
X125007572Y-93626714D01*
X126650428Y-93769571D02*
X126936143Y-93769571D01*
X127079000Y-93698143D01*
X127150428Y-93626714D01*
X127293286Y-93412429D01*
X127364714Y-93126714D01*
X127364714Y-92555286D01*
X127293286Y-92412429D01*
X127221857Y-92341000D01*
X127079000Y-92269571D01*
X126793286Y-92269571D01*
X126650428Y-92341000D01*
X126579000Y-92412429D01*
X126507571Y-92555286D01*
X126507571Y-92912429D01*
X126579000Y-93055286D01*
X126650428Y-93126714D01*
X126793286Y-93198143D01*
X127079000Y-93198143D01*
X127221857Y-93126714D01*
X127293286Y-93055286D01*
X127364714Y-92912429D01*
X128721857Y-92269571D02*
X128007571Y-92269571D01*
X127936142Y-92983857D01*
X128007571Y-92912429D01*
X128150428Y-92841000D01*
X128507571Y-92841000D01*
X128650428Y-92912429D01*
X128721857Y-92983857D01*
X128793285Y-93126714D01*
X128793285Y-93483857D01*
X128721857Y-93626714D01*
X128650428Y-93698143D01*
X128507571Y-93769571D01*
X128150428Y-93769571D01*
X128007571Y-93698143D01*
X127936142Y-93626714D01*
D12*
G36*
X160637220Y-98089720D02*
X160586420Y-98061780D01*
X160467040Y-97988120D01*
X160301940Y-97878900D01*
X160103820Y-97746820D01*
X159905700Y-97614740D01*
X159743140Y-97505520D01*
X159628840Y-97431860D01*
X159580580Y-97403920D01*
X159555180Y-97414080D01*
X159461200Y-97459800D01*
X159324040Y-97530920D01*
X159245300Y-97571560D01*
X159120840Y-97624900D01*
X159057340Y-97637600D01*
X159047180Y-97619820D01*
X159001460Y-97523300D01*
X158930340Y-97360740D01*
X158836360Y-97142300D01*
X158727140Y-96888300D01*
X158612840Y-96616520D01*
X158496000Y-96337120D01*
X158384240Y-96070420D01*
X158287720Y-95831660D01*
X158208980Y-95636080D01*
X158158180Y-95501460D01*
X158137860Y-95443040D01*
X158142940Y-95430340D01*
X158206440Y-95369380D01*
X158315660Y-95288100D01*
X158551880Y-95095060D01*
X158785560Y-94802960D01*
X158927800Y-94472760D01*
X158976060Y-94104460D01*
X158935420Y-93764100D01*
X158800800Y-93436440D01*
X158572200Y-93141800D01*
X158295340Y-92920820D01*
X157970220Y-92783660D01*
X157607000Y-92737940D01*
X157259020Y-92778580D01*
X156923740Y-92910660D01*
X156629100Y-93134180D01*
X156504640Y-93278960D01*
X156331920Y-93576140D01*
X156235400Y-93896180D01*
X156225240Y-93977460D01*
X156237940Y-94327980D01*
X156342080Y-94665800D01*
X156527500Y-94968060D01*
X156786580Y-95214440D01*
X156817060Y-95237300D01*
X156936440Y-95326200D01*
X157017720Y-95387160D01*
X157078680Y-95437960D01*
X156631640Y-96514920D01*
X156560520Y-96685100D01*
X156438600Y-96979740D01*
X156329380Y-97233740D01*
X156245560Y-97434400D01*
X156184600Y-97569020D01*
X156159200Y-97624900D01*
X156156660Y-97627440D01*
X156116020Y-97635060D01*
X156034740Y-97604580D01*
X155884880Y-97530920D01*
X155785820Y-97480120D01*
X155671520Y-97424240D01*
X155618180Y-97403920D01*
X155575000Y-97429320D01*
X155465780Y-97500440D01*
X155305760Y-97607120D01*
X155112720Y-97736660D01*
X154929840Y-97861120D01*
X154762200Y-97972880D01*
X154637740Y-98051620D01*
X154579320Y-98084640D01*
X154569160Y-98084640D01*
X154515820Y-98054160D01*
X154419300Y-97972880D01*
X154271980Y-97835720D01*
X154066240Y-97629980D01*
X154033220Y-97599500D01*
X153863040Y-97424240D01*
X153725880Y-97279460D01*
X153631900Y-97175320D01*
X153598880Y-97129600D01*
X153598880Y-97129600D01*
X153629360Y-97071180D01*
X153705560Y-96949260D01*
X153817320Y-96776540D01*
X153954480Y-96578420D01*
X154310080Y-96060260D01*
X154114500Y-95570040D01*
X154056080Y-95420180D01*
X153979880Y-95239840D01*
X153921460Y-95110300D01*
X153893520Y-95054420D01*
X153840180Y-95034100D01*
X153705560Y-95003620D01*
X153512520Y-94962980D01*
X153281380Y-94919800D01*
X153060400Y-94879160D01*
X152862280Y-94841060D01*
X152717500Y-94813120D01*
X152654000Y-94800420D01*
X152638760Y-94790260D01*
X152623520Y-94759780D01*
X152615900Y-94691200D01*
X152610820Y-94571820D01*
X152608280Y-94381320D01*
X152608280Y-94104460D01*
X152608280Y-94073980D01*
X152610820Y-93812360D01*
X152615900Y-93601540D01*
X152623520Y-93464380D01*
X152631140Y-93411040D01*
X152633680Y-93411040D01*
X152694640Y-93395800D01*
X152834340Y-93365320D01*
X153035000Y-93327220D01*
X153271220Y-93281500D01*
X153286460Y-93278960D01*
X153522680Y-93233240D01*
X153720800Y-93192600D01*
X153860500Y-93159580D01*
X153918920Y-93141800D01*
X153931620Y-93124020D01*
X153977340Y-93032580D01*
X154045920Y-92885260D01*
X154124660Y-92707460D01*
X154200860Y-92522040D01*
X154269440Y-92354400D01*
X154312620Y-92229940D01*
X154327860Y-92174060D01*
X154325320Y-92171520D01*
X154289760Y-92115640D01*
X154208480Y-91993720D01*
X154094180Y-91823540D01*
X153957020Y-91620340D01*
X153946860Y-91605100D01*
X153809700Y-91406980D01*
X153700480Y-91236800D01*
X153626820Y-91117420D01*
X153598880Y-91061540D01*
X153598880Y-91059000D01*
X153644600Y-90998040D01*
X153746200Y-90886280D01*
X153890980Y-90733880D01*
X154066240Y-90556080D01*
X154122120Y-90502740D01*
X154317700Y-90312240D01*
X154452320Y-90187780D01*
X154536140Y-90121740D01*
X154576780Y-90106500D01*
X154576780Y-90109040D01*
X154637740Y-90144600D01*
X154764740Y-90225880D01*
X154934920Y-90342720D01*
X155138120Y-90479880D01*
X155153360Y-90490040D01*
X155351480Y-90627200D01*
X155519120Y-90738960D01*
X155635960Y-90817700D01*
X155689300Y-90848180D01*
X155696920Y-90848180D01*
X155778200Y-90825320D01*
X155920440Y-90774520D01*
X156095700Y-90705940D01*
X156281120Y-90632280D01*
X156448760Y-90561160D01*
X156575760Y-90505280D01*
X156634180Y-90469720D01*
X156636720Y-90467180D01*
X156657040Y-90396060D01*
X156692600Y-90246200D01*
X156733240Y-90040460D01*
X156781500Y-89796620D01*
X156789120Y-89755980D01*
X156832300Y-89517220D01*
X156870400Y-89321640D01*
X156898340Y-89184480D01*
X156913580Y-89128600D01*
X156946600Y-89120980D01*
X157063440Y-89113360D01*
X157241240Y-89108280D01*
X157457140Y-89105740D01*
X157683200Y-89108280D01*
X157904180Y-89113360D01*
X158092140Y-89118440D01*
X158226760Y-89128600D01*
X158282640Y-89138760D01*
X158285180Y-89143840D01*
X158305500Y-89217500D01*
X158338520Y-89367360D01*
X158381700Y-89573100D01*
X158427420Y-89819480D01*
X158437580Y-89862660D01*
X158480760Y-90098880D01*
X158521400Y-90294460D01*
X158549340Y-90429080D01*
X158564580Y-90482420D01*
X158587440Y-90492580D01*
X158683960Y-90535760D01*
X158843980Y-90601800D01*
X159042100Y-90680540D01*
X159499300Y-90865960D01*
X160060640Y-90482420D01*
X160111440Y-90446860D01*
X160314640Y-90309700D01*
X160479740Y-90200480D01*
X160594040Y-90124280D01*
X160642300Y-90098880D01*
X160647380Y-90098880D01*
X160703260Y-90149680D01*
X160812480Y-90253820D01*
X160964880Y-90401140D01*
X161142680Y-90576400D01*
X161272220Y-90708480D01*
X161427160Y-90865960D01*
X161526220Y-90970100D01*
X161579560Y-91038680D01*
X161597340Y-91079320D01*
X161592260Y-91107260D01*
X161556700Y-91165680D01*
X161475420Y-91287600D01*
X161358580Y-91457780D01*
X161221420Y-91655900D01*
X161109660Y-91823540D01*
X160987740Y-92011500D01*
X160909000Y-92146120D01*
X160881060Y-92212160D01*
X160888680Y-92237560D01*
X160926780Y-92349320D01*
X160995360Y-92514420D01*
X161079180Y-92712540D01*
X161274760Y-93157040D01*
X161564320Y-93212920D01*
X161742120Y-93245940D01*
X161988500Y-93294200D01*
X162224720Y-93339920D01*
X162593020Y-93411040D01*
X162605720Y-94764860D01*
X162549840Y-94790260D01*
X162493960Y-94805500D01*
X162356800Y-94835980D01*
X162163760Y-94874080D01*
X161932620Y-94917260D01*
X161737040Y-94952820D01*
X161538920Y-94990920D01*
X161396680Y-95018860D01*
X161335720Y-95031560D01*
X161317940Y-95054420D01*
X161269680Y-95148400D01*
X161198560Y-95300800D01*
X161119820Y-95483680D01*
X161041080Y-95674180D01*
X160972500Y-95849440D01*
X160924240Y-95981520D01*
X160903920Y-96050100D01*
X160931860Y-96103440D01*
X161005520Y-96220280D01*
X161114740Y-96385380D01*
X161249360Y-96580960D01*
X161383980Y-96776540D01*
X161498280Y-96944180D01*
X161577020Y-97066100D01*
X161610040Y-97121980D01*
X161592260Y-97157540D01*
X161513520Y-97254060D01*
X161366200Y-97406460D01*
X161145220Y-97624900D01*
X161109660Y-97660460D01*
X160934400Y-97828100D01*
X160787080Y-97965260D01*
X160682940Y-98056700D01*
X160637220Y-98089720D01*
X160637220Y-98089720D01*
G37*
X160637220Y-98089720D02*
X160586420Y-98061780D01*
X160467040Y-97988120D01*
X160301940Y-97878900D01*
X160103820Y-97746820D01*
X159905700Y-97614740D01*
X159743140Y-97505520D01*
X159628840Y-97431860D01*
X159580580Y-97403920D01*
X159555180Y-97414080D01*
X159461200Y-97459800D01*
X159324040Y-97530920D01*
X159245300Y-97571560D01*
X159120840Y-97624900D01*
X159057340Y-97637600D01*
X159047180Y-97619820D01*
X159001460Y-97523300D01*
X158930340Y-97360740D01*
X158836360Y-97142300D01*
X158727140Y-96888300D01*
X158612840Y-96616520D01*
X158496000Y-96337120D01*
X158384240Y-96070420D01*
X158287720Y-95831660D01*
X158208980Y-95636080D01*
X158158180Y-95501460D01*
X158137860Y-95443040D01*
X158142940Y-95430340D01*
X158206440Y-95369380D01*
X158315660Y-95288100D01*
X158551880Y-95095060D01*
X158785560Y-94802960D01*
X158927800Y-94472760D01*
X158976060Y-94104460D01*
X158935420Y-93764100D01*
X158800800Y-93436440D01*
X158572200Y-93141800D01*
X158295340Y-92920820D01*
X157970220Y-92783660D01*
X157607000Y-92737940D01*
X157259020Y-92778580D01*
X156923740Y-92910660D01*
X156629100Y-93134180D01*
X156504640Y-93278960D01*
X156331920Y-93576140D01*
X156235400Y-93896180D01*
X156225240Y-93977460D01*
X156237940Y-94327980D01*
X156342080Y-94665800D01*
X156527500Y-94968060D01*
X156786580Y-95214440D01*
X156817060Y-95237300D01*
X156936440Y-95326200D01*
X157017720Y-95387160D01*
X157078680Y-95437960D01*
X156631640Y-96514920D01*
X156560520Y-96685100D01*
X156438600Y-96979740D01*
X156329380Y-97233740D01*
X156245560Y-97434400D01*
X156184600Y-97569020D01*
X156159200Y-97624900D01*
X156156660Y-97627440D01*
X156116020Y-97635060D01*
X156034740Y-97604580D01*
X155884880Y-97530920D01*
X155785820Y-97480120D01*
X155671520Y-97424240D01*
X155618180Y-97403920D01*
X155575000Y-97429320D01*
X155465780Y-97500440D01*
X155305760Y-97607120D01*
X155112720Y-97736660D01*
X154929840Y-97861120D01*
X154762200Y-97972880D01*
X154637740Y-98051620D01*
X154579320Y-98084640D01*
X154569160Y-98084640D01*
X154515820Y-98054160D01*
X154419300Y-97972880D01*
X154271980Y-97835720D01*
X154066240Y-97629980D01*
X154033220Y-97599500D01*
X153863040Y-97424240D01*
X153725880Y-97279460D01*
X153631900Y-97175320D01*
X153598880Y-97129600D01*
X153598880Y-97129600D01*
X153629360Y-97071180D01*
X153705560Y-96949260D01*
X153817320Y-96776540D01*
X153954480Y-96578420D01*
X154310080Y-96060260D01*
X154114500Y-95570040D01*
X154056080Y-95420180D01*
X153979880Y-95239840D01*
X153921460Y-95110300D01*
X153893520Y-95054420D01*
X153840180Y-95034100D01*
X153705560Y-95003620D01*
X153512520Y-94962980D01*
X153281380Y-94919800D01*
X153060400Y-94879160D01*
X152862280Y-94841060D01*
X152717500Y-94813120D01*
X152654000Y-94800420D01*
X152638760Y-94790260D01*
X152623520Y-94759780D01*
X152615900Y-94691200D01*
X152610820Y-94571820D01*
X152608280Y-94381320D01*
X152608280Y-94104460D01*
X152608280Y-94073980D01*
X152610820Y-93812360D01*
X152615900Y-93601540D01*
X152623520Y-93464380D01*
X152631140Y-93411040D01*
X152633680Y-93411040D01*
X152694640Y-93395800D01*
X152834340Y-93365320D01*
X153035000Y-93327220D01*
X153271220Y-93281500D01*
X153286460Y-93278960D01*
X153522680Y-93233240D01*
X153720800Y-93192600D01*
X153860500Y-93159580D01*
X153918920Y-93141800D01*
X153931620Y-93124020D01*
X153977340Y-93032580D01*
X154045920Y-92885260D01*
X154124660Y-92707460D01*
X154200860Y-92522040D01*
X154269440Y-92354400D01*
X154312620Y-92229940D01*
X154327860Y-92174060D01*
X154325320Y-92171520D01*
X154289760Y-92115640D01*
X154208480Y-91993720D01*
X154094180Y-91823540D01*
X153957020Y-91620340D01*
X153946860Y-91605100D01*
X153809700Y-91406980D01*
X153700480Y-91236800D01*
X153626820Y-91117420D01*
X153598880Y-91061540D01*
X153598880Y-91059000D01*
X153644600Y-90998040D01*
X153746200Y-90886280D01*
X153890980Y-90733880D01*
X154066240Y-90556080D01*
X154122120Y-90502740D01*
X154317700Y-90312240D01*
X154452320Y-90187780D01*
X154536140Y-90121740D01*
X154576780Y-90106500D01*
X154576780Y-90109040D01*
X154637740Y-90144600D01*
X154764740Y-90225880D01*
X154934920Y-90342720D01*
X155138120Y-90479880D01*
X155153360Y-90490040D01*
X155351480Y-90627200D01*
X155519120Y-90738960D01*
X155635960Y-90817700D01*
X155689300Y-90848180D01*
X155696920Y-90848180D01*
X155778200Y-90825320D01*
X155920440Y-90774520D01*
X156095700Y-90705940D01*
X156281120Y-90632280D01*
X156448760Y-90561160D01*
X156575760Y-90505280D01*
X156634180Y-90469720D01*
X156636720Y-90467180D01*
X156657040Y-90396060D01*
X156692600Y-90246200D01*
X156733240Y-90040460D01*
X156781500Y-89796620D01*
X156789120Y-89755980D01*
X156832300Y-89517220D01*
X156870400Y-89321640D01*
X156898340Y-89184480D01*
X156913580Y-89128600D01*
X156946600Y-89120980D01*
X157063440Y-89113360D01*
X157241240Y-89108280D01*
X157457140Y-89105740D01*
X157683200Y-89108280D01*
X157904180Y-89113360D01*
X158092140Y-89118440D01*
X158226760Y-89128600D01*
X158282640Y-89138760D01*
X158285180Y-89143840D01*
X158305500Y-89217500D01*
X158338520Y-89367360D01*
X158381700Y-89573100D01*
X158427420Y-89819480D01*
X158437580Y-89862660D01*
X158480760Y-90098880D01*
X158521400Y-90294460D01*
X158549340Y-90429080D01*
X158564580Y-90482420D01*
X158587440Y-90492580D01*
X158683960Y-90535760D01*
X158843980Y-90601800D01*
X159042100Y-90680540D01*
X159499300Y-90865960D01*
X160060640Y-90482420D01*
X160111440Y-90446860D01*
X160314640Y-90309700D01*
X160479740Y-90200480D01*
X160594040Y-90124280D01*
X160642300Y-90098880D01*
X160647380Y-90098880D01*
X160703260Y-90149680D01*
X160812480Y-90253820D01*
X160964880Y-90401140D01*
X161142680Y-90576400D01*
X161272220Y-90708480D01*
X161427160Y-90865960D01*
X161526220Y-90970100D01*
X161579560Y-91038680D01*
X161597340Y-91079320D01*
X161592260Y-91107260D01*
X161556700Y-91165680D01*
X161475420Y-91287600D01*
X161358580Y-91457780D01*
X161221420Y-91655900D01*
X161109660Y-91823540D01*
X160987740Y-92011500D01*
X160909000Y-92146120D01*
X160881060Y-92212160D01*
X160888680Y-92237560D01*
X160926780Y-92349320D01*
X160995360Y-92514420D01*
X161079180Y-92712540D01*
X161274760Y-93157040D01*
X161564320Y-93212920D01*
X161742120Y-93245940D01*
X161988500Y-93294200D01*
X162224720Y-93339920D01*
X162593020Y-93411040D01*
X162605720Y-94764860D01*
X162549840Y-94790260D01*
X162493960Y-94805500D01*
X162356800Y-94835980D01*
X162163760Y-94874080D01*
X161932620Y-94917260D01*
X161737040Y-94952820D01*
X161538920Y-94990920D01*
X161396680Y-95018860D01*
X161335720Y-95031560D01*
X161317940Y-95054420D01*
X161269680Y-95148400D01*
X161198560Y-95300800D01*
X161119820Y-95483680D01*
X161041080Y-95674180D01*
X160972500Y-95849440D01*
X160924240Y-95981520D01*
X160903920Y-96050100D01*
X160931860Y-96103440D01*
X161005520Y-96220280D01*
X161114740Y-96385380D01*
X161249360Y-96580960D01*
X161383980Y-96776540D01*
X161498280Y-96944180D01*
X161577020Y-97066100D01*
X161610040Y-97121980D01*
X161592260Y-97157540D01*
X161513520Y-97254060D01*
X161366200Y-97406460D01*
X161145220Y-97624900D01*
X161109660Y-97660460D01*
X160934400Y-97828100D01*
X160787080Y-97965260D01*
X160682940Y-98056700D01*
X160637220Y-98089720D01*
D13*
X146292000Y-95250000D03*
X144792000Y-95250000D03*
D14*
X171945300Y-86868000D03*
X170446700Y-86868000D03*
D15*
X158115000Y-113792000D03*
X160655000Y-113792000D03*
X155575000Y-113792000D03*
X145288000Y-113792000D03*
X147828000Y-113792000D03*
X142748000Y-113792000D03*
X132588000Y-113792000D03*
X135128000Y-113792000D03*
X130048000Y-113792000D03*
D16*
X162941000Y-110986000D03*
X162941000Y-109486000D03*
X160655000Y-110986000D03*
X160655000Y-109486000D03*
X149860000Y-110732000D03*
X149860000Y-109232000D03*
X147828000Y-110732000D03*
X147828000Y-109232000D03*
X137160000Y-111113000D03*
X137160000Y-109613000D03*
X135128000Y-111113000D03*
X135128000Y-109613000D03*
D17*
X168136000Y-86868000D03*
X166636000Y-86868000D03*
D16*
X163830000Y-87642000D03*
X163830000Y-89142000D03*
D17*
X115812000Y-93980000D03*
X114312000Y-93980000D03*
X115812000Y-96393000D03*
X114312000Y-96393000D03*
D18*
X171386000Y-90012000D03*
X171386000Y-96012000D03*
X167386000Y-90012000D03*
X167386000Y-96012000D03*
D19*
X141859000Y-95377000D03*
X141859000Y-92837000D03*
X141859000Y-90297000D03*
X141859000Y-87757000D03*
X134239000Y-87757000D03*
X134239000Y-90297000D03*
X134239000Y-92837000D03*
X134239000Y-95377000D03*
D20*
X169530000Y-100640000D03*
X169530000Y-104140000D03*
X169530000Y-107640000D03*
X108600000Y-112410000D03*
X108600000Y-108910000D03*
X108600000Y-105410000D03*
X108600000Y-101910000D03*
X108600000Y-98410000D03*
X108600000Y-94910000D03*
D21*
X149225000Y-96901000D02*
X147574000Y-95250000D01*
X147574000Y-95250000D02*
X146292000Y-95250000D01*
X153670000Y-101346000D02*
X159512000Y-101346000D01*
X149225000Y-96901000D02*
X153670000Y-101346000D01*
D22*
X132207000Y-95377000D02*
X130683000Y-95377000D01*
D21*
X134239000Y-95377000D02*
X132207000Y-95377000D01*
X132207000Y-95377000D02*
X131445000Y-95377000D01*
X131445000Y-95377000D02*
X131318000Y-95504000D01*
X164084000Y-108458000D02*
X165862000Y-108458000D01*
X162052000Y-106426000D02*
X164084000Y-108458000D01*
X162052000Y-103886000D02*
X162052000Y-106426000D01*
X159512000Y-101346000D02*
X162052000Y-103886000D01*
X171386000Y-96012000D02*
X171386000Y-97980000D01*
X172466000Y-99060000D02*
X172466000Y-107696000D01*
X171386000Y-97980000D02*
X172466000Y-99060000D01*
X166636000Y-86868000D02*
X166636000Y-87642000D01*
X169037000Y-94361000D02*
X167386000Y-96012000D01*
X169037000Y-89281000D02*
X169037000Y-94361000D01*
X168148000Y-88392000D02*
X169037000Y-89281000D01*
X167386000Y-88392000D02*
X168148000Y-88392000D01*
X166636000Y-87642000D02*
X167386000Y-88392000D01*
X162941000Y-110986000D02*
X162941000Y-115062000D01*
X161036000Y-116967000D02*
X155448000Y-116967000D01*
X162941000Y-115062000D02*
X161036000Y-116967000D01*
X137160000Y-111113000D02*
X137160000Y-112903000D01*
X137160000Y-112903000D02*
X137668000Y-113411000D01*
X149860000Y-110732000D02*
X149860000Y-112522000D01*
X149860000Y-112522000D02*
X150495000Y-113157000D01*
X144792000Y-95250000D02*
X144792000Y-94857000D01*
X154686000Y-100076000D02*
X169530000Y-100076000D01*
X148336000Y-93726000D02*
X154686000Y-100076000D01*
X145923000Y-93726000D02*
X148336000Y-93726000D01*
X144792000Y-94857000D02*
X145923000Y-93726000D01*
X171945300Y-86868000D02*
X172085000Y-86868000D01*
X172085000Y-86868000D02*
X173101000Y-87884000D01*
X173101000Y-87884000D02*
X173101000Y-91567000D01*
X173101000Y-91567000D02*
X169530000Y-95138000D01*
X169530000Y-95138000D02*
X169530000Y-100076000D01*
X171945300Y-86868000D02*
X171958000Y-86868000D01*
X163830000Y-87642000D02*
X163830000Y-87249000D01*
X171323000Y-85852000D02*
X171945300Y-86474300D01*
X165227000Y-85852000D02*
X171323000Y-85852000D01*
X163830000Y-87249000D02*
X165227000Y-85852000D01*
X171945300Y-86474300D02*
X171945300Y-86868000D01*
X115812000Y-93980000D02*
X115812000Y-92595000D01*
D23*
X143764000Y-93472000D02*
X141859000Y-95377000D01*
X143764000Y-92329000D02*
X143764000Y-93472000D01*
X143002000Y-91567000D02*
X143764000Y-92329000D01*
X140335000Y-91567000D02*
X143002000Y-91567000D01*
X137795000Y-89027000D02*
X140335000Y-91567000D01*
X132588000Y-89027000D02*
X137795000Y-89027000D01*
D21*
X119380000Y-89027000D02*
X132588000Y-89027000D01*
X115812000Y-92595000D02*
X119380000Y-89027000D01*
X144792000Y-95250000D02*
X141986000Y-95250000D01*
X141986000Y-95250000D02*
X141859000Y-95377000D01*
X115812000Y-96393000D02*
X115812000Y-93980000D01*
X170446700Y-86868000D02*
X168136000Y-86868000D01*
X141859000Y-87757000D02*
X162167000Y-87757000D01*
X162167000Y-87757000D02*
X163564000Y-89154000D01*
X163564000Y-89154000D02*
X166528000Y-89154000D01*
X166528000Y-89154000D02*
X167386000Y-90012000D01*
D22*
X131318000Y-92837000D02*
X132080000Y-92837000D01*
X131318000Y-92837000D02*
X130556000Y-92837000D01*
D21*
X134239000Y-92837000D02*
X132080000Y-92837000D01*
X131318000Y-92837000D02*
X131191000Y-92837000D01*
X131191000Y-92837000D02*
X131064000Y-92710000D01*
X135128000Y-109613000D02*
X135128000Y-109474000D01*
X135128000Y-109474000D02*
X135763000Y-108839000D01*
X135763000Y-108839000D02*
X136386000Y-108839000D01*
X136386000Y-108839000D02*
X137160000Y-109613000D01*
X134239000Y-90297000D02*
X120015000Y-90297000D01*
X114312000Y-97421000D02*
X114312000Y-96393000D01*
X115062000Y-98171000D02*
X114312000Y-97421000D01*
X116459000Y-98171000D02*
X115062000Y-98171000D01*
X117602000Y-97028000D02*
X116459000Y-98171000D01*
X117602000Y-92710000D02*
X117602000Y-97028000D01*
X120015000Y-90297000D02*
X117602000Y-92710000D01*
X108600000Y-98410000D02*
X110124000Y-98410000D01*
X112141000Y-96393000D02*
X114312000Y-96393000D01*
X110124000Y-98410000D02*
X112141000Y-96393000D01*
X160655000Y-113792000D02*
X160655000Y-110986000D01*
X147828000Y-113792000D02*
X147828000Y-110732000D01*
X117983000Y-88138000D02*
X134239000Y-88138000D01*
X114312000Y-91809000D02*
X117983000Y-88138000D01*
X114312000Y-93980000D02*
X114312000Y-91809000D01*
X108600000Y-94910000D02*
X108925000Y-94910000D01*
X108925000Y-94910000D02*
X109855000Y-93980000D01*
X109855000Y-93980000D02*
X114312000Y-93980000D01*
X135128000Y-113792000D02*
X135128000Y-111113000D01*
X141859000Y-92837000D02*
X140716000Y-92837000D01*
X140716000Y-92837000D02*
X139700000Y-93853000D01*
X139700000Y-93853000D02*
X139700000Y-96774000D01*
X139700000Y-96774000D02*
X141351000Y-98425000D01*
X141351000Y-98425000D02*
X148590000Y-98425000D01*
X148590000Y-98425000D02*
X152908000Y-102743000D01*
X152908000Y-102743000D02*
X159258000Y-102743000D01*
X159258000Y-102743000D02*
X160655000Y-104140000D01*
X160655000Y-104140000D02*
X160655000Y-109486000D01*
X160655000Y-109486000D02*
X160655000Y-109347000D01*
X160655000Y-109347000D02*
X161417000Y-108585000D01*
X161417000Y-108585000D02*
X162040000Y-108585000D01*
X162040000Y-108585000D02*
X162941000Y-109486000D01*
D22*
X145923000Y-90297000D02*
X144526000Y-90297000D01*
D21*
X144526000Y-90297000D02*
X141859000Y-90297000D01*
X147828000Y-109232000D02*
X147828000Y-108712000D01*
X148959000Y-108331000D02*
X149860000Y-109232000D01*
X148209000Y-108331000D02*
X148959000Y-108331000D01*
X147828000Y-108712000D02*
X148209000Y-108331000D01*
D24*
G36*
X173280000Y-121210000D02*
X125857000Y-121210000D01*
X125857000Y-112268000D01*
X130937000Y-112268000D01*
X130937000Y-116205000D01*
X130947006Y-116254410D01*
X130975447Y-116296035D01*
X131017841Y-116323315D01*
X131064000Y-116332000D01*
X136906000Y-116332000D01*
X136955410Y-116321994D01*
X136997035Y-116293553D01*
X137024315Y-116251159D01*
X137033000Y-116205000D01*
X137033000Y-112141000D01*
X143637000Y-112141000D01*
X143637000Y-116332000D01*
X143647006Y-116381410D01*
X143675447Y-116423035D01*
X143717841Y-116450315D01*
X143764000Y-116459000D01*
X149606000Y-116459000D01*
X149655410Y-116448994D01*
X149697035Y-116420553D01*
X149724315Y-116378159D01*
X149733000Y-116332000D01*
X149733000Y-112141000D01*
X156591000Y-112141000D01*
X156591000Y-116078000D01*
X156601006Y-116127410D01*
X156629447Y-116169035D01*
X156671841Y-116196315D01*
X156718000Y-116205000D01*
X164846000Y-116205000D01*
X164895410Y-116194994D01*
X164937035Y-116166553D01*
X164964315Y-116124159D01*
X164973000Y-116078000D01*
X164973000Y-106426000D01*
X173280000Y-106426000D01*
X173280000Y-121210000D01*
X173280000Y-121210000D01*
G37*
X173280000Y-121210000D02*
X125857000Y-121210000D01*
X125857000Y-112268000D01*
X130937000Y-112268000D01*
X130937000Y-116205000D01*
X130947006Y-116254410D01*
X130975447Y-116296035D01*
X131017841Y-116323315D01*
X131064000Y-116332000D01*
X136906000Y-116332000D01*
X136955410Y-116321994D01*
X136997035Y-116293553D01*
X137024315Y-116251159D01*
X137033000Y-116205000D01*
X137033000Y-112141000D01*
X143637000Y-112141000D01*
X143637000Y-116332000D01*
X143647006Y-116381410D01*
X143675447Y-116423035D01*
X143717841Y-116450315D01*
X143764000Y-116459000D01*
X149606000Y-116459000D01*
X149655410Y-116448994D01*
X149697035Y-116420553D01*
X149724315Y-116378159D01*
X149733000Y-116332000D01*
X149733000Y-112141000D01*
X156591000Y-112141000D01*
X156591000Y-116078000D01*
X156601006Y-116127410D01*
X156629447Y-116169035D01*
X156671841Y-116196315D01*
X156718000Y-116205000D01*
X164846000Y-116205000D01*
X164895410Y-116194994D01*
X164937035Y-116166553D01*
X164964315Y-116124159D01*
X164973000Y-116078000D01*
X164973000Y-106426000D01*
X173280000Y-106426000D01*
X173280000Y-121210000D01*
G36*
X133604000Y-115316000D02*
X131826000Y-115316000D01*
X131826000Y-111379000D01*
X131815994Y-111329590D01*
X131787553Y-111287965D01*
X131745159Y-111260685D01*
X131699000Y-111252000D01*
X125095000Y-111252000D01*
X125045590Y-111262006D01*
X125003965Y-111290447D01*
X124976685Y-111332841D01*
X124968000Y-111379000D01*
X124968000Y-121210000D01*
X104850000Y-121210000D01*
X104850000Y-111252000D01*
X120523000Y-111252000D01*
X120572410Y-111241994D01*
X120614035Y-111213553D01*
X120641315Y-111171159D01*
X120650000Y-111125000D01*
X120650000Y-108331000D01*
X133604000Y-108331000D01*
X133604000Y-115316000D01*
X133604000Y-115316000D01*
G37*
X133604000Y-115316000D02*
X131826000Y-115316000D01*
X131826000Y-111379000D01*
X131815994Y-111329590D01*
X131787553Y-111287965D01*
X131745159Y-111260685D01*
X131699000Y-111252000D01*
X125095000Y-111252000D01*
X125045590Y-111262006D01*
X125003965Y-111290447D01*
X124976685Y-111332841D01*
X124968000Y-111379000D01*
X124968000Y-121210000D01*
X104850000Y-121210000D01*
X104850000Y-111252000D01*
X120523000Y-111252000D01*
X120572410Y-111241994D01*
X120614035Y-111213553D01*
X120641315Y-111171159D01*
X120650000Y-111125000D01*
X120650000Y-108331000D01*
X133604000Y-108331000D01*
X133604000Y-115316000D01*
G36*
X141224000Y-108204000D02*
X141234006Y-108253410D01*
X141262447Y-108295035D01*
X141304841Y-108322315D01*
X141351000Y-108331000D01*
X146304000Y-108331000D01*
X146304000Y-115450251D01*
X144399000Y-115562310D01*
X144399000Y-111252000D01*
X144388994Y-111202590D01*
X144360553Y-111160965D01*
X144318159Y-111133685D01*
X144272000Y-111125000D01*
X138557000Y-111125000D01*
X138557000Y-107315000D01*
X138546994Y-107265590D01*
X138518553Y-107223965D01*
X138476159Y-107196685D01*
X138430000Y-107188000D01*
X119761000Y-107188000D01*
X119711590Y-107198006D01*
X119669965Y-107226447D01*
X119642685Y-107268841D01*
X119634000Y-107315000D01*
X119634000Y-110236000D01*
X104850000Y-110236000D01*
X104850000Y-107569000D01*
X115951000Y-107569000D01*
X116000410Y-107558994D01*
X116042035Y-107530553D01*
X116069315Y-107488159D01*
X116078000Y-107442000D01*
X116078000Y-104267000D01*
X141224000Y-104267000D01*
X141224000Y-108204000D01*
X141224000Y-108204000D01*
G37*
X141224000Y-108204000D02*
X141234006Y-108253410D01*
X141262447Y-108295035D01*
X141304841Y-108322315D01*
X141351000Y-108331000D01*
X146304000Y-108331000D01*
X146304000Y-115450251D01*
X144399000Y-115562310D01*
X144399000Y-111252000D01*
X144388994Y-111202590D01*
X144360553Y-111160965D01*
X144318159Y-111133685D01*
X144272000Y-111125000D01*
X138557000Y-111125000D01*
X138557000Y-107315000D01*
X138546994Y-107265590D01*
X138518553Y-107223965D01*
X138476159Y-107196685D01*
X138430000Y-107188000D01*
X119761000Y-107188000D01*
X119711590Y-107198006D01*
X119669965Y-107226447D01*
X119642685Y-107268841D01*
X119634000Y-107315000D01*
X119634000Y-110236000D01*
X104850000Y-110236000D01*
X104850000Y-107569000D01*
X115951000Y-107569000D01*
X116000410Y-107558994D01*
X116042035Y-107530553D01*
X116069315Y-107488159D01*
X116078000Y-107442000D01*
X116078000Y-104267000D01*
X141224000Y-104267000D01*
X141224000Y-108204000D01*
G36*
X148209000Y-103886000D02*
X148219006Y-103935410D01*
X148247447Y-103977035D01*
X148289841Y-104004315D01*
X148336000Y-104013000D01*
X159131000Y-104013000D01*
X159131000Y-115323689D01*
X157353000Y-115434814D01*
X157353000Y-111379000D01*
X157342994Y-111329590D01*
X157314553Y-111287965D01*
X157272159Y-111260685D01*
X157226000Y-111252000D01*
X151765000Y-111252000D01*
X151765000Y-107315000D01*
X151754994Y-107265590D01*
X151726553Y-107223965D01*
X151684159Y-107196685D01*
X151638000Y-107188000D01*
X142494000Y-107188000D01*
X142494000Y-103251000D01*
X142483994Y-103201590D01*
X142455553Y-103159965D01*
X142413159Y-103132685D01*
X142367000Y-103124000D01*
X115062000Y-103124000D01*
X115012590Y-103134006D01*
X114970965Y-103162447D01*
X114943685Y-103204841D01*
X114935000Y-103251000D01*
X114935000Y-106680000D01*
X104850000Y-106680000D01*
X104850000Y-104013000D01*
X112395000Y-104013000D01*
X112444410Y-104002994D01*
X112486035Y-103974553D01*
X112513315Y-103932159D01*
X112522000Y-103886000D01*
X112522000Y-99568000D01*
X148209000Y-99568000D01*
X148209000Y-103886000D01*
X148209000Y-103886000D01*
G37*
X148209000Y-103886000D02*
X148219006Y-103935410D01*
X148247447Y-103977035D01*
X148289841Y-104004315D01*
X148336000Y-104013000D01*
X159131000Y-104013000D01*
X159131000Y-115323689D01*
X157353000Y-115434814D01*
X157353000Y-111379000D01*
X157342994Y-111329590D01*
X157314553Y-111287965D01*
X157272159Y-111260685D01*
X157226000Y-111252000D01*
X151765000Y-111252000D01*
X151765000Y-107315000D01*
X151754994Y-107265590D01*
X151726553Y-107223965D01*
X151684159Y-107196685D01*
X151638000Y-107188000D01*
X142494000Y-107188000D01*
X142494000Y-103251000D01*
X142483994Y-103201590D01*
X142455553Y-103159965D01*
X142413159Y-103132685D01*
X142367000Y-103124000D01*
X115062000Y-103124000D01*
X115012590Y-103134006D01*
X114970965Y-103162447D01*
X114943685Y-103204841D01*
X114935000Y-103251000D01*
X114935000Y-106680000D01*
X104850000Y-106680000D01*
X104850000Y-104013000D01*
X112395000Y-104013000D01*
X112444410Y-104002994D01*
X112486035Y-103974553D01*
X112513315Y-103932159D01*
X112522000Y-103886000D01*
X112522000Y-99568000D01*
X148209000Y-99568000D01*
X148209000Y-103886000D01*
M02*
